<?xml version="1.0" encoding="utf-8"?>
<!-- Generator: Adobe Illustrator 28.1.0, SVG Export Plug-In . SVG Version: 6.00 Build 0)  -->
<svg version="1.1" id="レイヤー_1" xmlns="http://www.w3.org/2000/svg" xmlns:xlink="http://www.w3.org/1999/xlink" x="0px"
	 y="0px" viewBox="0 0 28.4 28.4" style="enable-background:new 0 0 28.4 28.4;" xml:space="preserve">
<style type="text/css">
	.st0{fill:#008800;}
</style>
<path class="st0" d="M26.9,0C26.9,0,26.9,0,26.9,0H1.6C0.7,0,0,0.7,0,1.6v25.3c0,0.9,0.7,1.6,1.6,1.6h13.6v-11h-3.7v-4.3h3.7V9.9
	c-0.3-2.8,1.8-5.4,4.6-5.7c0.3,0,0.6,0,0.9,0c1.1,0,2.2,0.1,3.3,0.2v3.8h-2.3c-1.8,0-2.1,0.9-2.1,2.1v2.7h4.3l-0.6,4.3h-3.7v11.1
	h7.2c0.9,0,1.6-0.7,1.6-1.6V1.6C28.4,0.7,27.7,0,26.9,0z"/>
</svg>
