<?xml version="1.0" encoding="utf-8"?>
<!-- Generator: Adobe Illustrator 28.1.0, SVG Export Plug-In . SVG Version: 6.00 Build 0)  -->
<svg version="1.1" id="レイヤー_1" xmlns="http://www.w3.org/2000/svg" xmlns:xlink="http://www.w3.org/1999/xlink" x="0px"
	 y="0px" viewBox="0 0 28.4 28.4" style="enable-background:new 0 0 28.4 28.4;" xml:space="preserve">
<style type="text/css">
	.st0{fill:#008800;}
</style>
<g>
	<path class="st0" d="M14.2,10.7c-1.9,0-3.5,1.6-3.5,3.5c0,1.9,1.6,3.5,3.5,3.5c1.9,0,3.5-1.6,3.5-3.5
		C17.7,12.3,16.2,10.7,14.2,10.7z"/>
	<path class="st0" d="M28.3,7.2L28.3,7.2c0-1.1-0.2-2.2-0.6-3.2c-0.6-1.5-1.8-2.7-3.3-3.3c-1-0.4-2.1-0.6-3.2-0.6
		C19.4,0,18.8,0,14.2,0C9.6,0,9,0,7.2,0.1C6.1,0.1,5,0.3,4,0.7C2.5,1.3,1.3,2.5,0.7,4C0.3,5,0.1,6.1,0.1,7.2C0,9,0,9.6,0,14.2
		s0,5.2,0.1,7c0,1.1,0.2,2.2,0.6,3.2c0.3,0.7,0.7,1.4,1.3,2c0.6,0.6,1.2,1,2,1.3c1,0.4,2.1,0.6,3.2,0.6c1.8,0.1,2.4,0.1,7,0.1
		s5.2,0,7-0.1c1.1,0,2.2-0.2,3.2-0.6c0.8-0.3,1.4-0.7,2-1.3c0.6-0.6,1-1.2,1.3-2c0.4-1,0.6-2.1,0.6-3.2c0.1-1.8,0.1-2.4,0.1-7
		S28.4,9,28.3,7.2z M24.7,18.6L24.7,18.6c0,0.9-0.2,1.8-0.6,2.6c-0.6,1.4-1.6,2.5-3,3c-0.8,0.3-1.7,0.5-2.6,0.5H9.9
		c-0.9,0-1.7-0.2-2.6-0.5c-1.4-0.5-2.5-1.6-3-3c-0.3-0.8-0.5-1.7-0.5-2.6c0-1.1,0-1.4,0-4.3V9.9C3.8,9,4,8.1,4.3,7.3
		c0.3-0.7,0.7-1.3,1.2-1.9C6,4.9,6.6,4.5,7.3,4.3C8.1,4,9,3.8,9.9,3.8h8.7c0.9,0,1.7,0.2,2.6,0.5c1.4,0.5,2.5,1.6,3,3
		c0.3,0.8,0.5,1.7,0.5,2.6c0,1.1,0,1.4,0,4.3C24.7,17.1,24.8,17.4,24.7,18.6z"/>
	<path class="st0" d="M20.4,6c-0.6-0.2-1.3-0.3-2-0.3H9.9c-0.7,0-1.3,0.1-2,0.4C7.1,6.4,6.3,7.1,6,8c-0.2,0.6-0.3,1.3-0.3,2v8.5
		c0,0.7,0.1,1.3,0.4,2c0.3,0.9,1.1,1.7,2,2c0.6,0.2,1.2,0.3,1.9,0.4h8.5c0.7,0,1.3-0.1,2-0.4c0.9-0.3,1.7-1.1,2-2
		c0.2-0.6,0.4-1.3,0.4-2V9.9c0-0.7-0.1-1.3-0.4-2C22.1,7.1,21.4,6.3,20.4,6z M14.2,19.6C14.2,19.6,14.2,19.6,14.2,19.6L14.2,19.6
		c-3,0-5.4-2.4-5.4-5.4c0,0,0,0,0,0c0-3,2.4-5.4,5.4-5.4c3,0,5.4,2.4,5.4,5.4S17.2,19.6,14.2,19.6z M19.9,9.8
		c-0.7-0.1-1.2-0.7-1.1-1.4c0.1-0.6,0.5-1.1,1.1-1.1C20.6,7.4,21.1,8,21,8.7C21,9.3,20.5,9.8,19.9,9.8z"/>
</g>
</svg>
