<?xml version="1.0" encoding="utf-8"?>
<!-- Generator: Adobe Illustrator 28.1.0, SVG Export Plug-In . SVG Version: 6.00 Build 0)  -->
<svg version="1.1" id="レイヤー_1" xmlns="http://www.w3.org/2000/svg" xmlns:xlink="http://www.w3.org/1999/xlink" x="0px"
	 y="0px" viewBox="0 0 23.6 27.6" style="enable-background:new 0 0 23.6 27.6;" xml:space="preserve">
<style type="text/css">
	.st0{fill:#008800;}
</style>
<path class="st0" d="M16.8,0h-4l0,19.3c-0.1,2.4-2.1,4.3-4.4,4.2c0,0,0,0,0,0c-2.4,0-4.3-1.9-4.3-4.3l0,0C4.1,16.9,6,15,8.4,15
	c0.2,0,0.3,0,0.5,0.1v-4.1c-0.2,0-0.3,0-0.5,0c-4.6,0-8.4,3.8-8.4,8.4s3.8,8.4,8.4,8.4s8.4-3.8,8.4-8.4V7.9c1.4,2.1,3.7,3.3,6.2,3.3
	c0.2,0,0.5,0,0.7,0V6.6C20.1,6.3,17.2,3.5,16.8,0z"/>
</svg>
