<?xml version="1.0" encoding="UTF-8"?>
<svg id="_レイヤー_1" data-name="レイヤー 1" xmlns="http://www.w3.org/2000/svg" version="1.1" viewBox="0 0 24.3 24.2">
  <defs>
    <style>
      .cls-1 {
        fill: #080;
      }

      .cls-1, .cls-2 {
        stroke-width: 0px;
      }

      .cls-2 {
        fill: #fff;
      }
    </style>
  </defs>
  <path class="cls-1" d="M3.2,0h17.8c1.7,0,3.2,1.4,3.3,3.2v17.8c0,1.8-1.5,3.2-3.3,3.2H3.2c-1.7,0-3.1-1.5-3.2-3.3V3.2C0,1.5,1.5,0,3.2,0ZM4.8,8.7c0,1.9,0,3.8,0,5.6,0,.1,0,.2-.1.2,0,0,0,0,0,0-.2,0-.5,0-.7,0,.2.4.3.7.5,1.1.4,0,.9,0,1.3-.2.3-.3.5-.7.4-1.1,0-1.9,0-3.8,0-5.7-.4,0-.9,0-1.3,0h0ZM10.1,8.6c-.3.7-.6,1.5-1,2.2,0,.2-.2.5,0,.7.3.2.6.1.9.2-.2.5-.5,1.1-.7,1.6,0,.2,0,.5.3.5,0,0,0,0,.1,0,.5,0,1,0,1.5,0,.2-.4.3-.7.5-1.1-.3,0-.6,0-.9,0,.3-.8.7-1.5,1-2.3-.4,0-.8,0-1.2,0,.2-.6.5-1.2.7-1.8-.4,0-.9,0-1.3,0h0ZM17,8.6v.5h-.9v1.3c.3,0,.6,0,.9,0,0,.4,0,.8,0,1.1-.4,0-.9,0-1.3,0,0,.4,0,.9,0,1.3h1.3v2.8h1.3v-2.8c.6,0,1.3,0,1.9,0,.2,0,.4.1.5.4,0,0,0,0,0,0,0,.3,0,.7,0,1,0,.1,0,.2-.2.2-.4,0-.7,0-1.1,0,.2.4.3.8.5,1.1.6,0,1.3.1,1.8-.4.4-.4.3-1,.3-1.6,0-.6,0-1.1-.2-1.7-.3-.4-.8-.6-1.3-.5,0-.7.1-1.4-.4-2-.5-.4-1.2-.6-1.8-.5v-.5c-.4,0-.9,0-1.3,0h0ZM12.3,9.1v1.3h.8v4c-.4,0-.8,0-1.2,0-.2.4-.4.9-.6,1.3,1.5,0,2.9,0,4.4,0v-1.3h-1.3v-4h.8v-1.3c-1,0-2,0-3,0h0ZM20.9,9.2c-.4.3-.2.8-.3,1.2.2,0,.5,0,.7,0,.4,0,.6-.4.6-.7s-.4-.6-.7-.6c-.1,0-.2,0-.3.1ZM2.6,10.4c0,.9-.1,1.7-.2,2.6,0,.2,0,.4-.1.6.2.5.4,1,.7,1.5.5-.7.8-1.6.8-2.5,0-.7.1-1.5.2-2.2-.4,0-.9,0-1.3,0h0ZM6.9,10.4l.2,2.4c0,.8.3,1.6.8,2.3.2-.5.5-1,.7-1.5,0-.2-.1-.4-.1-.6,0-.9-.1-1.7-.2-2.6h-1.3,0ZM8.6,15.6c.7.1,1.4.1,2.1.1.2-.4.4-.9.6-1.3-.7,0-1.4,0-2.1-.1-.2.4-.4.9-.6,1.3h0Z"/>
  <path class="cls-1" d="M18.3,10.4c.3,0,.7-.1.9.1,0,.3,0,.7,0,1h-.9c0-.4,0-.8,0-1.2Z"/>
  <path class="cls-2" d="M4.8,8.7h1.3c0,1.9,0,3.8,0,5.7,0,.4-.1.8-.4,1.1-.4.2-.8.3-1.3.2-.2-.4-.3-.7-.5-1.1.2,0,.5,0,.7,0,.1,0,.2,0,.2-.2,0,0,0,0,0,0,0-1.9,0-3.8,0-5.6Z"/>
  <path class="cls-2" d="M10.1,8.6c.4,0,.9,0,1.3,0-.2.6-.6,1.1-.7,1.8.4,0,.8.1,1.2,0-.3.8-.7,1.5-1,2.3.3,0,.6,0,.9,0-.2.4-.3.7-.5,1.1-.5,0-1,0-1.5,0-.2,0-.4-.2-.4-.4,0,0,0,0,0-.1.2-.6.5-1.1.7-1.6-.3,0-.7,0-.9-.2-.2-.2,0-.5,0-.7.3-.7.7-1.5,1-2.2Z"/>
  <path class="cls-2" d="M17,8.6h1.3v.5c.6-.1,1.3,0,1.8.5.5.5.3,1.3.4,2,.5,0,1,.2,1.3.5.2.5.3,1.1.2,1.7,0,.5.1,1.2-.3,1.6-.5.5-1.2.3-1.8.4-.2-.4-.3-.8-.5-1.1.4,0,.7,0,1.1,0,.1,0,.2-.1.2-.2,0-.3,0-.7,0-1,0-.2-.2-.4-.4-.4,0,0,0,0,0,0-.6,0-1.3,0-1.9,0v2.8h-1.3v-2.8h-1.3v-1.3c.4,0,.9,0,1.3,0,0-.4,0-.8,0-1.1-.3,0-.6,0-.9,0v-1.3h.9v-.5ZM18.3,10.4c0,.4,0,.8,0,1.2h.9c0-.3,0-.7,0-1-.2-.2-.6,0-.9-.1h0Z"/>
  <path class="cls-2" d="M12.3,9.1h3v1.3h-.8v4h1.3v1.3h-4.4c.2-.4.4-.9.6-1.3h1.2v-4h-.8c0-.4,0-.9,0-1.3Z"/>
  <path class="cls-2" d="M20.9,9.2c.3-.2.7-.2.9.1s.2.7-.1.9c0,0-.2.1-.3.1-.2,0-.5,0-.7,0,0-.4-.1-.9.3-1.2Z"/>
  <path class="cls-2" d="M2.6,10.4c.4,0,.9,0,1.3,0,0,.7-.1,1.5-.2,2.2,0,.9-.3,1.7-.8,2.5-.2-.5-.5-1-.7-1.5,0-.2.1-.4.1-.6,0-.9.1-1.7.2-2.6Z"/>
  <path class="cls-2" d="M6.9,10.4h1.3c0,.9.1,1.7.2,2.6,0,.2,0,.4.1.6-.2.5-.4,1-.7,1.5-.5-.7-.7-1.5-.8-2.3,0-.8-.1-1.6-.2-2.4Z"/>
  <path class="cls-2" d="M8.5,15.6c.2-.4.4-.9.6-1.3.7.1,1.4.1,2.1.1-.2.4-.4.9-.6,1.3-.7,0-1.4,0-2.1,0Z"/>
</svg>