<?xml version="1.0" encoding="utf-8"?>
<!-- Generator: Adobe Illustrator 28.1.0, SVG Export Plug-In . SVG Version: 6.00 Build 0)  -->
<svg version="1.1" id="レイヤー_1" xmlns="http://www.w3.org/2000/svg" xmlns:xlink="http://www.w3.org/1999/xlink" x="0px"
	 y="0px" viewBox="0 0 28.4 20" style="enable-background:new 0 0 28.4 20;" xml:space="preserve">
<style type="text/css">
	.st0{fill:#008800;}
</style>
<path class="st0" d="M27.2,1.7C26.7,1,25.9,0.6,25,0.4C21.4,0.1,17.8,0,14.2,0C10.6,0,7,0.1,3.4,0.4c-0.7,0.1-1.4,0.5-1.9,1
	C0.4,2.4,0.3,4.3,0.1,5.8C0,8.6,0,11.4,0.1,14.2c0,0.9,0.2,1.7,0.4,2.6C0.7,17.4,1,18,1.4,18.5c0.5,0.5,1.2,0.9,1.9,1
	C6.2,19.9,9,20,11.8,20c4.5,0.1,8.5,0,13.2-0.4c0.7-0.1,1.4-0.5,2-1c0.4-0.4,0.6-0.8,0.8-1.3c0.5-1.4,0.7-2.9,0.7-4.4
	c0.1-0.7,0.1-5.1,0.1-5.9C28.5,5.2,28.1,3.4,27.2,1.7z M11.3,13.7v-8l7.6,4C16.8,10.9,14,12.2,11.3,13.7z"/>
</svg>
